<svg width="22" height="18" viewBox="0 0 22 18" fill="none" xmlns="http://www.w3.org/2000/svg">
<path d="M21.0927 5.94375C21.2564 5.79844 21.5 5.93437 21.5 6.16406V15.75C21.5 16.9922 20.5972 18 19.4844 18H2.01562C0.902832 18 0 16.9922 0 15.75V6.16875C0 5.93438 0.239355 5.80312 0.407324 5.94844C1.34795 6.76406 2.59512 7.8 6.87832 11.2734C7.76436 11.9953 9.25928 13.5141 10.75 13.5047C12.2491 13.5188 13.7734 11.9672 14.6259 11.2734C18.9091 7.8 20.1521 6.75938 21.0927 5.94375ZM10.75 12C11.7242 12.0188 13.1268 10.6313 13.8322 10.0594C19.4046 5.54531 19.8287 5.15156 21.1137 4.02656C21.3572 3.81562 21.5 3.4875 21.5 3.14062V2.25C21.5 1.00781 20.5972 0 19.4844 0H2.01562C0.902832 0 0 1.00781 0 2.25V3.14062C0 3.4875 0.142773 3.81094 0.386328 4.02656C1.67129 5.14687 2.09541 5.54531 7.66777 10.0594C8.37324 10.6313 9.77578 12.0188 10.75 12Z" fill="black"/>
</svg>
